<svg id="B_IZQ" xmlns="http://www.w3.org/2000/svg" viewBox="0 0 1280 1024"><path d="M288.0297,147.97564c82.476,133.24748,191.10361,290.25354,256.61825,406.507,64.91542,115.1963,174.379,156.15535,212.9291,261.15069q52.3908-1.723,104.78055-3.447c-84.809-130.68589-151.35016-267.991-205.375-338.62246C616.98279,421.271,571.64818,327.92959,545.87129,272.58239,484.17751,140.12982,477.7962,25.84836,296.71149,6.617,288.8804,62.99917,295.86079,91.58928,288.0297,147.97564Z" fill="#fbc9be" fill-rule="evenodd"/><path d="M904.99376,847.53779c-6.66137-8.76286-14.51659-19.564-23.91756-32.24988l51.22214,18.80816c22.73627,8.347,34.823-10.42215,34.0586-22.01717L851.53958,758.93847c-16.21176-7.50365-41.4875,1.25815-61.84109,15.29789-42.07823,29.02388-47.61938,74.32157-6.98363,131.46079l45.462,98.52874c9.721,21.06224,39.36812,7.10778,29.38185-14.07343l-32.64989-69.23954a19.69627,19.69627,0,0,0,4.96.538l51.67381,87.25273c11.94667,20.16626,38.3258,1.12233,28.429-15.9096l-47.05286-80.99249a25.74679,25.74679,0,0,0,3.07116-1.90144l61.67386,87.94339c12.40668,17.68891,38.96794-1.17287,26.65172-18.73965l-66.041-94.16468q1.1197-2.23152,2.05095-4.53988l72.74869,84.269c13.845,16.038,39.00067-4.67359,24.57138-21.38967Z" fill="#fbc9be" fill-rule="evenodd"/></svg>