<svg id="B_DER" xmlns="http://www.w3.org/2000/svg" viewBox="0 0 1280 1024"><path d="M993.92282,186.395C912.21,318.41629,801.54738,416.48169,747.75057,539.88233,700.51,648.24686,556.15542,707.14785,517.957,811.177q-51.904-1.70713-103.81635-3.41531c84.02864-129.4833,168.77289-278.06583,222.30579-348.05249,53.53394-69.98562,84.99878-159.32812,125.26476-232.30031C822.6067,117.04777,857.38468,11.66042,991.753,12.94142,999.51526,68.80474,986.16692,130.52853,993.92282,186.395Z" fill="#fbc9be" fill-rule="evenodd"/><path d="M371.89994,842.78789c6.60008-8.68222,14.382-19.384,23.69747-31.95311l-50.75078,18.63508C322.3165,837.74,310.3441,819.14362,311.09831,807.6553l113.76084-52.65143c16.06253-7.4346,41.10777,1.24658,61.27523,15.15712,41.68985,28.7568,47.181,73.63765,6.91923,130.25107l-45.04674,97.62206c-9.62836,20.86842-39.00589,7.04238-29.10839-13.94392l32.34632-68.60239a19.49251,19.49251,0,0,1-4.91225.53306l-51.19726,86.44981c-11.83673,19.98069-37.97311,1.112-28.16741-15.76319l46.61988-80.24719a25.26219,25.26219,0,0,1-3.0429-1.88394l-61.10937,87.13413c-12.2926,17.52613-38.60945-1.16208-26.40343-18.56721l65.43222-93.29817q-1.10782-2.211-2.031-4.4981L314.354,958.84051c-13.71756,15.89046-38.64178-4.63059-24.3484-21.19285Z" fill="#fbc9be" fill-rule="evenodd"/></svg>