<svg id="CABEZA" xmlns="http://www.w3.org/2000/svg" viewBox="0 0 1280 1024"><path d="M902.96816,164.85427c115.96911,0,209.975,94.00712,209.975,209.97763,0,115.97037-94.00585,209.97243-209.975,209.97243s-209.975-94.00206-209.975-209.97243C692.99319,258.86139,786.99905,164.85427,902.96816,164.85427Z" fill="#f5586b" fill-rule="evenodd"/><path d="M728.85761,14.80234c107.23264,0,194.16962,86.92925,194.16962,194.16962,0,107.23517-86.937,194.16582-194.16962,194.16582-107.2389,0-194.16963-86.93065-194.16963-194.16582C534.688,101.73159,621.61871,14.80234,728.85761,14.80234Z" fill="#f5586b" fill-rule="evenodd"/><path d="M501.35152,31.4149c109.90862,0,199.01927,89.10306,199.01927,199.02181,0,109.91241-89.11065,199.02054-199.01927,199.02054-109.92381,0-199.02687-89.10813-199.02687-199.02054C302.32465,120.518,391.42771,31.4149,501.35152,31.4149Z" fill="#f5586b" fill-rule="evenodd"/><path d="M386.78682,213.15357c123.97933,0,224.48724,100.50791,224.48724,224.4847,0,123.98692-100.50791,224.49483-224.48724,224.49483-123.98818,0-224.48977-100.50791-224.48977-224.49483C162.29705,313.66148,262.79864,213.15357,386.78682,213.15357Z" fill="#f5586b" fill-rule="evenodd"/><path d="M391.7048,541.9381a175.43336,175.43336,0,1,1-175.43013,175.434A175.43342,175.43342,0,0,1,391.7048,541.9381Z" fill="#f5586b" fill-rule="evenodd"/><path d="M942.269,444.1011A175.434,175.434,0,1,1,766.84264,619.54015,175.43774,175.43774,0,0,1,942.269,444.1011Z" fill="#f5586b" fill-rule="evenodd"/><path d="M825.85448,658.33865a175.42951,175.42951,0,1,1-175.42631,175.4302A175.42856,175.42856,0,0,1,825.85448,658.33865Z" fill="#f5586b" fill-rule="evenodd"/><path d="M635.54763,475.46633h-.00253c-64.14879,0-116.62324,44.821-116.62324,99.60833V859.01792c0,73.31417,233.25154,73.74814,233.25154,0V575.07466C752.1734,520.28356,699.6965,475.46633,635.54763,475.46633Z" fill="#fbc9be" fill-rule="evenodd"/><path d="M752.17719,692.69743H518.92566V777.5746c64.12981,38.11769,144.9734,49.59477,233.25153,49.25442Z" fill="#e3b4aa" fill-rule="evenodd"/><path d="M629.34038,73.74974c245.12578,0,308.52049,247.77392,252.945,446.487C845.06078,653.3244,719.18487,764.3263,629.34038,764.3263c-89.84576,0-215.24587-112.2531-251.10269-246.138C325.1141,319.82571,389.81461,73.74974,629.34038,73.74974Z" fill="#fbc9be" fill-rule="evenodd"/><path d="M967.46742,438.6263C880.79614,540.93856,675.93147,290.62151,514.10258,127.21739,616.32488-83.942,1093.189,151.92494,967.46742,438.6263Z" fill="#f5586b" fill-rule="evenodd"/><path d="M379.62558,468.65176C460.993,277.10371,596.4911,183.94557,686.853,120.70775,550.2504,8.80511,225.42733,70.14507,379.62558,468.65176Z" fill="#f5586b" fill-rule="evenodd"/><path d="M713.33947,426.83315a18.2044,18.2044,0,1,0,18.06506,18.17639A18.11906,18.11906,0,0,0,713.33947,426.83315Z" fill="#021029" fill-rule="evenodd"/><path d="M536.92619,427.10644a18.20186,18.20186,0,1,0,18.06513,18.1726A18.11494,18.11494,0,0,0,536.92619,427.10644Z" fill="#021029" fill-rule="evenodd"/><path d="M596.64918,574.05235c60.32777-10.3256,48.45732-50.60569,35.5772-103.33066C668.40457,514.40527,684.32758,578.18714,596.64918,574.05235Z" fill="#deafa5" fill-rule="evenodd"/><path d="M731.5222,605.3695c-63.63511,25.99809-150.586,24.6038-212.7218,0C553.48569,647.42092,698.56656,648.50017,731.5222,605.3695Z" fill="#c9897b" fill-rule="evenodd"/><path d="M692.42637,646.77945c-40.24467,16.44049-95.23187,15.55735-134.53014,0C579.83165,673.37347,671.58538,674.058,692.42637,646.77945Z" fill="#c9897b" fill-rule="evenodd"/><path d="M917.08441,407.69643c20.11727,5.05336,30.01269,34.69154,22.09619,66.20227-7.91162,31.5082-30.63907,52.95524-50.75508,47.90188-20.12106-5.05335-30.01648-34.6928-22.10116-66.20353C874.241,424.09011,896.96461,402.643,917.08441,407.69643Z" fill="#fbc9be" fill-rule="evenodd"/><path d="M924.21782,426.15624a4.68937,4.68937,0,1,1-6.1111,7.11443A13.39922,13.39922,0,0,0,911.47561,430a11.49071,11.49071,0,0,0-6.49193.9755,20.98182,20.98182,0,0,0-7.06508,5.56958c-5.50885,6.39564-10.11431,17.07184-12.42337,32.10665a4.6908,4.6908,0,1,1-9.26786-1.45641c2.58615-16.86675,8.009-29.132,14.57553-36.76134a30.05806,30.05806,0,0,1,10.34332-8.02666,20.82264,20.82264,0,0,1,11.74519-1.6853A22.60805,22.60805,0,0,1,924.21782,426.15624Z" fill="#e5b7a7" fill-rule="evenodd"/><path d="M906.03139,491.21854a4.69771,4.69771,0,1,1-8.3709-4.26638,22.53906,22.53906,0,0,0,2.6532-10.9481,15.87339,15.87339,0,0,0-2.16229-7.62432,13.42174,13.42174,0,0,0-5.40889-5.061,17.34639,17.34639,0,0,0-8.57442-1.7397,4.69079,4.69079,0,0,1-.34044-9.37541,26.61956,26.61956,0,0,1,13.18,2.74051,22.71888,22.71888,0,0,1,9.18435,8.58969,25.188,25.188,0,0,1,3.49332,12.12983A31.83708,31.83708,0,0,1,906.03139,491.21854Z" fill="#e5b7a7" fill-rule="evenodd"/><path d="M348.03893,407.69643c-20.12106,5.05336-30.01522,34.69154-22.0999,66.20227,7.91533,31.5082,30.639,52.95524,50.75879,47.90188,20.11727-5.05335,30.01269-34.6928,22.10116-66.20353C390.88239,424.09011,368.15494,402.643,348.03893,407.69643Z" fill="#fbc9be" fill-rule="evenodd"/><path d="M340.90552,426.15624a4.68813,4.68813,0,1,0,6.1073,7.11443A13.41442,13.41442,0,0,1,353.64393,430a11.486,11.486,0,0,1,6.49193.9755,20.9932,20.9932,0,0,1,7.069,5.56958c5.50877,6.39564,10.11423,17.07184,12.42076,32.10665a4.692,4.692,0,0,0,9.27039-1.45641c-2.58994-16.86675-8.00895-29.132-14.57933-36.76134a30.082,30.082,0,0,0-10.33952-8.02666,20.83545,20.83545,0,0,0-11.749-1.6853A22.597,22.597,0,0,0,340.90552,426.15624Z" fill="#e5b7a7" fill-rule="evenodd"/><path d="M359.08825,491.21854a4.69936,4.69936,0,1,0,8.3746-4.26638,22.50318,22.50318,0,0,1-2.657-10.9481,15.9584,15.9584,0,0,1,2.1623-7.62432,13.40781,13.40781,0,0,1,5.41268-5.061,17.32832,17.32832,0,0,1,8.57072-1.7397,4.69082,4.69082,0,1,0,.34161-9.37541,26.606,26.606,0,0,0-13.17737,2.74051,22.72933,22.72933,0,0,0-9.18823,8.58969,25.184,25.184,0,0,0-3.48945,12.12983A31.78789,31.78789,0,0,0,359.08825,491.21854Z" fill="#e5b7a7" fill-rule="evenodd"/><path d="M569.26945,365.49559c15.58645,5.57476,8.095,26.2829-7.48515,20.70953-20.30705-7.26626-66.51858-14.23392-87.13055.31871-14.84756,10.49147-18.6749-2.81123-4.608-11.61728C497.9126,357.46652,544.968,356.78962,569.26945,365.49559Z" fill="#f5586b" fill-rule="evenodd"/><path d="M673.45793,365.49559c-15.58772,5.57476-8.095,26.2829,7.48388,20.70953,20.30706-7.26626,66.51984-14.23392,87.13056.31871,14.84882,10.49147,18.6749-2.81123,4.60926-11.61728C744.81486,357.46652,697.75934,356.78962,673.45793,365.49559Z" fill="#f5586b" fill-rule="evenodd"/></svg>