<svg id="P_DER" xmlns="http://www.w3.org/2000/svg" viewBox="0 0 1280 1024"><path d="M593.72689,26.2374a290.86957,290.86957,0,0,0-5.83807,43.48824c-12.90554,243.65592,22.6954,243.79,35.32956,453.60559,1.677,27.84936,2.18358,63.32206-1.87656,118.43876-3.20032,43.48384,8.05106,116.51007-.63,204.99145-3.63926,37.10875-22.79645,45.08585-42.76024,58.59-18.78316,12.70654-29.71424,22.06327-41.69557,25.22474-15.94733,4.20643-13.41528,16.49372-.04047,16.8917-12.71134,5.36153-11.49719,21.79938.58207,18.03509-9.51688,5.63287-11.494,19.28223,3.47752,18.83424-18.94278,4.75338-3.92285,22.39156,22.49478,7.68714,4.95769-2.75871,19.06355-3.84889,29.53816-8.23942,14.57935-6.11278,36.691-30.32823,45.131-33.86321,17.34714-7.26788,36.98372-2.7768,52.34948-22.2926,14.16811-17.99252-6.02819-50.40693-2.50329-88.73462,5.79884-63.03743,27.188-161.05,23.37211-225.92942-2.116-35.98239-7.35673-63.07839-5.81856-87.13262,1.21255-18.89595,7.70363-46.6799,11.30405-66.21112,13.7712-74.69744,29.4381-230.26409,38.63681-362.9364Z" fill="#fbc9be" fill-rule="evenodd"/></svg>