<svg id="P_IZQ" xmlns="http://www.w3.org/2000/svg" viewBox="0 0 1280 1024"><path d="M523.578,101.66432c9.05186,130.55792,24.4171,283.56219,37.9776,359.82813,4.0101,22.55274,11.586,52.21966,12.1862,74.25846.61984,22.83264-4.06916,48.65276-6.042,82.19355-2.29848,39.12522,11.02952,134.01469,25.926,220.105,6.84862,39.57961-15.10027,75.64659-.2096,94.559,15.36361,19.5158,35.00178,15.02472,52.349,22.2926,8.44,3.535,30.55165,27.75043,45.131,33.86321,10.47458,4.39053,24.582,5.48071,29.53973,8.23942,26.41549,14.70442,39.87331-2.93376,20.93053-7.68714,14.97152.448,12.9944-13.20137,3.47752-18.83424,12.07926,3.76429,13.295-12.67356.5826-18.03509,13.37428-.398,15.90793-12.68527-.041-16.8917-11.98083-3.16147-22.91244-12.5182-41.694-25.22474-20.26387-13.70788-40.38458-21.63924-42.83686-60.2899-5.7462-90.57553-.65922-157.64965-3.83985-200.84831-4.05852-55.11989-2.68-95.69019-1.59883-123.57044,8.02074-206.56473,61.163-229.391,36.797-459.85724a349.45852,349.45852,0,0,0-7.77818-44.507Z" fill="#fbc9be" fill-rule="evenodd"/></svg>