<svg id="TORSO" xmlns="http://www.w3.org/2000/svg" viewBox="0 0 1280 1024"><path d="M915.19206,871.34531c-31.40386-131.3604-98.728-241.5425-100.52131-315.52691-3.0076-122.69116,54.69913-245.2516,60.31864-371.47416,19.30452-36.42341,17.28447-33.71576,36.58362-70.13469,35.60771-67.19872-123.21676-96.75989-270.67519-96.86912-147.46022.10923-308.345,19.80146-272.449,86.84886,19.50062,36.4243,17.63015,61.4772,37.13524,97.90419,5.52006,127.443,78.31315,234.087,70.75161,360.27019-3.26853,54.51233-82.43624,186.589-111.26275,325.74118" fill="#fbc9be" fill-rule="evenodd"/><path d="M401.81454,765.03429a2525.40057,2525.40057,0,0,0,480.30116,0c12.37066,33.508,24.16826,69.05665,33.07735,106.31091L644.48921,1006.65957h-8.3835l-1.48723-.65542-269.47895-118.156c8.7712-42.24431,22.16259-83.82872,36.66247-122.78524Z" fill="#0c3" fill-rule="evenodd"/><path d="M640.913,719.811c11.00967,0,19.98955-5.71614,19.98955-12.72164,0-7.00467-8.97988-12.71538-19.98955-12.71538-11.01056,0-19.9877,5.71071-19.9877,12.71538C620.92534,714.09489,629.90248,719.811,640.913,719.811Z" fill="#e3b4aa" fill-rule="evenodd"/><path d="M636.10571,1006.65957l-1.48723-.65542-269.47895-118.156" fill="#fff" fill-rule="evenodd"/><path d="M640.913,719.811c11.00967,0,19.98955-5.71614,19.98955-12.72164,0-7.00467-8.97988-12.71538-19.98955-12.71538-11.01056,0-19.9877,5.71071-19.9877,12.71538C620.92534,714.09489,629.90248,719.811,640.913,719.811Z" fill="#e3b4aa" fill-rule="evenodd"/><path d="M640.913,719.811c11.00967,0,19.98955-5.71614,19.98955-12.72164,0-7.00467-8.97988-12.71538-19.98955-12.71538-11.01056,0-19.9877,5.71071-19.9877,12.71538C620.92534,714.09489,629.90248,719.811,640.913,719.811Z" fill="#e3b4aa" fill-rule="evenodd"/><path d="M734.76113,329.22754c-60.55853,30.86575-124.00911,30.86038-184.5677.00179,57.67545-3.346,85.44221-39.20805,92.283-84.94706C651.30131,290.666,677.06783,325.90208,734.76113,329.22754Z" fill="#e3b4aa" fill-rule="evenodd"/><path d="M478.00383,27.546V206.27672c30.3885,24.34017,74.08513,28.34792,119.23855,70.35048,17.1162,15.92444,25.05117,33.09167,26.1014,49.83084h39.43459c1.04318-16.73648,8.98525-33.9064,26.10229-49.83084,45.14984-42.00256,88.84826-46.00494,119.23676-70.34787V30.09878c6.82016,1.80241,13.71373,2.02089,20.61716,3.85106V213.35027c29.68294,44.24192,69.80071,116.33661,31.58206,164.682-57.24466,72.40188-155.32978,42.059-187.27715-11.90318H613.08265c-31.93752,53.96222-130.036,84.30506-187.27535,11.90318-38.22129-48.34271,1.89374-120.44277,31.57937-164.682V29.91075C464.29278,28.08148,471.18367,29.35024,478.00383,27.546Z" fill="#0c3" fill-rule="evenodd"/></svg>